# xmcd CD database file
#
# Track frame offsets:
#	150
#	23431
#	56724
#	81296
#	114091
#	138896
#	162170
#	186242
#	214333
#
# Disc length: 3248 seconds
#
# Revision: 0
# Processed by: cddbd v1.5.2PL0 Copyright (c) Steve Scherf et al.
# Submitted via: CDex 1.51
#
DISCID=700cae09
DTITLE=Amstel Big Band - ABB plays Sven Schuster
DYEAR=2011
DGENRE=Jazz
TTITLE0=Music for President
TTITLE1=Gentle Orientle
TTITLE2=Skating in Beijing
TTITLE3=Gravitation
TTITLE4=S-Funk
TTITLE5=Sixtease
TTITLE6=Romanian Market
TTITLE7=Sheherazade
TTITLE8=Dales Mirror
EXTD=YEAR: 2011
EXTT0=
EXTT1=
EXTT2=
EXTT3=
EXTT4=
EXTT5=
EXTT6=
EXTT7=
EXTT8=
PLAYORDER=
